<?xml version="1.0" encoding="iso-8859-1"?>
<!-- Generator: Adobe Illustrator 19.0.0, SVG Export Plug-In . SVG Version: 6.00 Build 0)  -->
<svg  version="1.1" id="Capa_1" xmlns="http://www.w3.org/2000/svg" xmlns:xlink="http://www.w3.org/1999/xlink" x="0px" y="0px"
	 viewBox="0 0 512 512" style="enable-background:new 0 0 512 512; fill:#ffb400" xml:space="preserve">
<g>
	<g>
		<path d="M184.254,257c-0.499,0-0.99,0.037-1.469,0.107c-0.479-0.07-0.97-0.107-1.469-0.107h-9.562c-7.168,0-13-5.832-13-13
			c0-7.168,5.832-13,13-13h35.5c5.523,0,10-4.477,10-10s-4.477-10-10-10h-35.5c-18.196,0-33,14.804-33,33s14.804,33,33,33h9.562
			c0.499,0,0.99-0.037,1.469-0.107c0.479,0.07,0.97,0.107,1.469,0.107c7.168,0,13,5.832,13,13c0,7.168-5.832,13-13,13h-31.5
			c-5.523,0-10,4.477-10,10s4.477,10,10,10h31.5c18.197,0,33-14.804,33-33S202.45,257,184.254,257z"/>
	</g>
</g>
<g>
	<g>
		<path d="M96.752,212.25h-35.5c-5.523,0-10,4.477-10,10v89.5c0,5.523,4.477,10,10,10s10-4.477,10-10v-33.5h25.5
			c18.196,0,33-14.804,33-33C129.752,227.054,114.948,212.25,96.752,212.25z M96.752,258.25h-25.5v-26h25.5c7.168,0,13,5.832,13,13
			C109.752,252.418,103.92,258.25,96.752,258.25z"/>
	</g>
</g>
<g>
	<g>
		<path d="M264.002,212.25h-20c-5.523,0-10,4.477-10,10v89.5c0,5.523,4.477,10,10,10h20c30.189,0,54.75-24.561,54.75-54.75
			C318.752,236.81,294.191,212.25,264.002,212.25z M264.002,301.75h-10v-69.5h10c19.161,0,34.75,15.589,34.75,34.75
			S283.163,301.75,264.002,301.75z"/>
	</g>
</g>
<g>
	<g>
		<path d="M505.851,149.293L407.118,4.37C405.256,1.636,402.162,0,398.854,0H171.188c-13.013,0-23.601,10.747-23.601,23.956V149
			H30.413c-14.336,0-26,11.664-26,26v184c0,14.336,11.663,26,25.999,26h117.175v103.043c0,13.21,10.587,23.957,23.601,23.957
			h312.799c13.013,0,23.6-10.747,23.6-23.957v-333.12C507.587,152.915,506.982,150.954,505.851,149.293z M407.587,40.58
			l70.939,104.126h-70.939V40.58z M30.413,365c-3.252,0-6-2.748-6-6V175c0-3.253,2.748-6,6-6h309.179c3.252,0,6,2.747,6,6v184
			c0,3.252-2.747,6-6,6H30.413z M487.587,488.044c0,2.144-1.649,3.956-3.6,3.956h-22.741v-52.291c0-5.523-4.477-10-10-10
			s-10,4.477-10,10V492H171.188c-1.952,0-3.601-1.812-3.601-3.957V385h172.004c14.337,0,26-11.664,26-26V175
			c0-14.336-11.663-26-26-26H167.587V23.956c0-2.144,1.649-3.956,3.601-3.956h216.399v130.601c0,7.777,6.281,14.105,14,14.105h86
			V488.044z"/>
	</g>
</g>
<g>
	<g>
		<path d="M451.246,391.57c-5.523,0-10,4.477-10,10v0.612c0,5.523,4.477,10,10,10s10-4.477,10-10v-0.612
			C461.246,396.047,456.769,391.57,451.246,391.57z"/>
	</g>
</g>
<g>
</g>
<g>
</g>
<g>
</g>
<g>
</g>
<g>
</g>
<g>
</g>
<g>
</g>
<g>
</g>
<g>
</g>
<g>
</g>
<g>
</g>
<g>
</g>
<g>
</g>
<g>
</g>
<g>
</g>
</svg>
